<svg width="136" height="84" viewBox="0 0 136 84" fill="none" xmlns="http://www.w3.org/2000/svg">
<circle cx="133" cy="3" r="3" transform="rotate(90 133 3)" fill="#DC7702"/>
<circle cx="107" cy="3" r="3" transform="rotate(90 107 3)" fill="#DC7702"/>
<circle cx="81" cy="3" r="3" transform="rotate(90 81 3)" fill="#DC7702"/>
<circle cx="55" cy="3" r="3" transform="rotate(90 55 3)" fill="#DC7702"/>
<circle cx="29" cy="3" r="3" transform="rotate(90 29 3)" fill="#DC7702"/>
<circle cx="3" cy="3" r="3" transform="rotate(90 3 3)" fill="#DC7702"/>
<circle cx="133" cy="29" r="3" transform="rotate(90 133 29)" fill="#DC7702"/>
<circle cx="107" cy="29" r="3" transform="rotate(90 107 29)" fill="#DC7702"/>
<circle cx="81" cy="29" r="3" transform="rotate(90 81 29)" fill="#DC7702"/>
<circle cx="55" cy="29" r="3" transform="rotate(90 55 29)" fill="#DC7702"/>
<circle cx="29" cy="29" r="3" transform="rotate(90 29 29)" fill="#DC7702"/>
<circle cx="3" cy="29" r="3" transform="rotate(90 3 29)" fill="#DC7702"/>
<circle cx="133" cy="55" r="3" transform="rotate(90 133 55)" fill="#DC7702"/>
<circle cx="107" cy="55" r="3" transform="rotate(90 107 55)" fill="#DC7702"/>
<circle cx="81" cy="55" r="3" transform="rotate(90 81 55)" fill="#DC7702"/>
<circle cx="55" cy="55" r="3" transform="rotate(90 55 55)" fill="#DC7702"/>
<circle cx="29" cy="55" r="3" transform="rotate(90 29 55)" fill="#DC7702"/>
<circle cx="3" cy="55" r="3" transform="rotate(90 3 55)" fill="#DC7702"/>
<circle cx="133" cy="81" r="3" transform="rotate(90 133 81)" fill="#DC7702"/>
<circle cx="107" cy="81" r="3" transform="rotate(90 107 81)" fill="#DC7702"/>
<circle cx="81" cy="81" r="3" transform="rotate(90 81 81)" fill="#DC7702"/>
<circle cx="55" cy="81" r="3" transform="rotate(90 55 81)" fill="#DC7702"/>
<circle cx="29" cy="81" r="3" transform="rotate(90 29 81)" fill="#DC7702"/>
<circle cx="3" cy="81" r="3" transform="rotate(90 3 81)" fill="#DC7702"/>
</svg>
