<svg width="21" height="21" viewBox="0 0 21 21" fill="none" xmlns="http://www.w3.org/2000/svg">
<g clip-path="url(#clip0)">
<path d="M17.1569 8.48633H9.6569C8.73643 8.48633 7.99023 9.23252 7.99023 10.153V17.653C7.99023 18.5735 8.73643 19.3197 9.6569 19.3197H17.1569C18.0774 19.3197 18.8236 18.5735 18.8236 17.653V10.153C18.8236 9.23252 18.0774 8.48633 17.1569 8.48633Z" stroke="#838683" stroke-width="2" stroke-linecap="round" stroke-linejoin="round"/>
<path d="M4.65625 13.4857H3.82292C3.38089 13.4857 2.95697 13.3101 2.64441 12.9975C2.33184 12.685 2.15625 12.261 2.15625 11.819V4.31901C2.15625 3.87698 2.33184 3.45306 2.64441 3.1405C2.95697 2.82794 3.38089 2.65234 3.82292 2.65234H11.3229C11.7649 2.65234 12.1889 2.82794 12.5014 3.1405C12.814 3.45306 12.9896 3.87698 12.9896 4.31901V5.15234" stroke="#838683" stroke-width="2" stroke-linecap="round" stroke-linejoin="round"/>
</g>
<defs>
<clipPath id="clip0">
<rect width="20" height="20" fill="white" transform="translate(0.490234 0.986328)"/>
</clipPath>
</defs>
</svg>
