<svg width="20" height="20" viewBox="0 0 20 20" fill="none" xmlns="http://www.w3.org/2000/svg">
<path fill-rule="evenodd" clip-rule="evenodd" d="M16.9059 4.36849C17.2301 4.36849 17.5 4.63765 17.5 4.98015V5.29681C17.5 5.63098 17.2301 5.90847 16.9059 5.90847H3.09488C2.76988 5.90847 2.5 5.63098 2.5 5.29681V4.98015C2.5 4.63765 2.76988 4.36849 3.09488 4.36849H5.52464C6.01821 4.36849 6.44775 4.01766 6.55879 3.52266L6.68603 2.95434C6.88378 2.18018 7.53458 1.66602 8.27939 1.66602H11.7206C12.4573 1.66602 13.1154 2.18018 13.3059 2.9135L13.442 3.52183C13.5522 4.01766 13.9818 4.36849 14.4762 4.36849H16.9059ZM15.6716 15.9444C15.9252 13.5802 16.3694 7.96364 16.3694 7.90697C16.3856 7.73531 16.3296 7.57281 16.2186 7.44198C16.0995 7.31948 15.9487 7.24698 15.7826 7.24698H4.2238C4.05685 7.24698 3.898 7.31948 3.78778 7.44198C3.67593 7.57281 3.62082 7.73531 3.62893 7.90697C3.63042 7.91738 3.64635 8.11522 3.67299 8.44598C3.79135 9.91535 4.12101 14.0078 4.33403 15.9444C4.48477 17.371 5.42085 18.2677 6.77675 18.3002C7.82306 18.3244 8.90097 18.3327 10.0032 18.3327C11.0414 18.3327 12.0958 18.3244 13.1745 18.3002C14.5774 18.276 15.5127 17.3952 15.6716 15.9444Z" fill="#DB3838"/>
</svg>
