<svg width="20" height="20" viewBox="0 0 20 20" fill="none" xmlns="http://www.w3.org/2000/svg">
<rect width="20" height="20" fill="white"/>
<path fill-rule="evenodd" clip-rule="evenodd" d="M5.28202 2.54551L7.52438 7.18277L9.80008 2.47656H5.94149C5.71795 2.47656 5.49705 2.50003 5.28202 2.54551ZM4.57206 2.78573L6.84 7.4759L1.43493 6.28797C1.51824 5.99079 1.66734 5.70832 1.88171 5.46333L3.5427 3.56506C3.83237 3.234 4.18369 2.97051 4.57206 2.78573ZM8.11683 7.66603H12.3533L10.2351 3.28543L8.11683 7.66603ZM12.9458 7.18277L10.6701 2.47656H14.392C14.6583 2.47656 14.9209 2.50988 15.1743 2.57405L12.9458 7.18277ZM7.90246 8.40977H12.4308L10.1851 17.3925C10.1728 17.3926 10.1605 17.3926 10.1482 17.3925L7.90246 8.40977ZM9.34 17.2264L7.10743 8.29616L1.36279 7.0336C1.39567 7.44272 1.54695 7.84483 1.81791 8.18547L8.50373 16.5905C8.73549 16.8819 9.02468 17.0938 9.34 17.2264ZM10.9932 17.2265L13.2105 8.35745L18.974 6.98519C18.9495 7.41093 18.7972 7.8314 18.5155 8.18547L11.8297 16.5905C11.5979 16.8819 11.3086 17.0939 10.9932 17.2265ZM13.6208 7.49523L18.885 6.24185C18.7996 5.96159 18.655 5.69561 18.4517 5.46333L16.7908 3.56506C16.5287 3.26558 16.2162 3.02139 15.8715 2.84074L13.6208 7.49523Z" fill="#202320"/>
</svg>
