<svg width="20" height="20" viewBox="0 0 20 20" fill="none" xmlns="http://www.w3.org/2000/svg">
<rect x="5.91357" y="1.5" width="8.17385" height="3.26954" rx="1.63477" fill="#202320"/>
<path fill-rule="evenodd" clip-rule="evenodd" d="M2.62646 7.05919C2.62646 5.45311 3.22556 4.27689 4.31496 3.64148C4.55774 5.19562 5.90228 6.3847 7.52453 6.3847H12.4769C14.1021 6.3847 15.4486 5.19119 15.6878 3.63281C16.7853 4.26616 17.3728 5.44577 17.3728 7.05919V14.7027C17.3728 17.2424 15.9637 18.6679 13.4331 18.6679H6.56703C4.07653 18.6679 2.62646 17.2424 2.62646 14.7027V7.05919ZM13.8445 10.2514C14.162 9.93387 14.162 9.41905 13.8445 9.10152C13.527 8.78399 13.0121 8.78399 12.6946 9.10152L9.59131 12.2048L8.12279 10.7363C7.80526 10.4188 7.29044 10.4188 6.97291 10.7363C6.65538 11.0538 6.65538 11.5686 6.97291 11.8862L9.01637 13.9296C9.16885 14.0821 9.37567 14.1678 9.59131 14.1678C9.80696 14.1678 10.0138 14.0821 10.1663 13.9296L13.8445 10.2514Z" fill="#202320"/>
</svg>
