<svg width="20" height="20" viewBox="0 0 20 20" fill="none" xmlns="http://www.w3.org/2000/svg">
<path d="M11.0181 14.4727L13.0545 17.9999" stroke="#202320" stroke-width="2" stroke-linecap="round" stroke-linejoin="round"/>
<path d="M8.98193 14.4727L6.94551 17.9999" stroke="#202320" stroke-width="2" stroke-linecap="round" stroke-linejoin="round"/>
<path fill-rule="evenodd" clip-rule="evenodd" d="M5.05464 2C3.36761 2 2 3.36761 2 5.05464V11.9454C2 13.6324 3.36761 15 5.05464 15H14.9454C16.6324 15 18 13.6324 18 11.9454V5.05464C18 3.36761 16.6324 2 14.9454 2H5.05464ZM5 8.5C4.44772 8.5 4 8.94772 4 9.5V10.5C4 11.0523 4.44772 11.5 5 11.5H6C6.55228 11.5 7 11.0523 7 10.5V9.5C7 8.94772 6.55228 8.5 6 8.5H5ZM4.25 6C4.25 5.58579 4.58579 5.25 5 5.25H15C15.4142 5.25 15.75 5.58579 15.75 6C15.75 6.41421 15.4142 6.75 15 6.75H5C4.58579 6.75 4.25 6.41421 4.25 6ZM9 9.25C8.58579 9.25 8.25 9.58579 8.25 10C8.25 10.4142 8.58579 10.75 9 10.75H15.5C15.9142 10.75 16.25 10.4142 16.25 10C16.25 9.58579 15.9142 9.25 15.5 9.25H9Z" fill="#202320"/>
</svg>
