<svg width="20" height="20" viewBox="0 0 20 20" fill="none" xmlns="http://www.w3.org/2000/svg">
<path fill-rule="evenodd" clip-rule="evenodd" d="M8.24596 9.35768C7.88138 9.35768 7.5931 9.64102 7.5931 9.99935C7.5931 10.3493 7.88138 10.641 8.24596 10.641H13.3332V14.6243C13.3332 16.666 11.6459 18.3327 9.56016 18.3327H5.43104C3.35376 18.3327 1.6665 16.6743 1.6665 14.6327V5.37435C1.6665 3.32435 3.36224 1.66602 5.43952 1.66602H9.57712C11.6459 1.66602 13.3332 3.32435 13.3332 5.36602V9.35768H8.24596ZM16.3584 7.11619L18.7917 9.54119C18.9167 9.66619 18.9834 9.82452 18.9834 9.99952C18.9834 10.1662 18.9167 10.3329 18.7917 10.4495L16.3584 12.8745C16.2334 12.9995 16.0667 13.0662 15.9084 13.0662C15.7417 13.0662 15.575 12.9995 15.45 12.8745C15.2 12.6245 15.2 12.2162 15.45 11.9662L16.7834 10.6412H13.3334V9.35785H16.7834L15.45 8.03285C15.2 7.78285 15.2 7.37452 15.45 7.12452C15.7 6.86619 16.1084 6.86619 16.3584 7.11619Z" fill="#E72D2D"/>
</svg>
