<svg width="20" height="20" viewBox="0 0 20 20" fill="none" xmlns="http://www.w3.org/2000/svg">
<path fill-rule="evenodd" clip-rule="evenodd" d="M17.0016 11.316C17.2997 11.4743 17.5296 11.7243 17.6915 11.9743C18.0066 12.491 17.981 13.1243 17.6744 13.6827L17.0783 14.6827C16.7632 15.216 16.1755 15.5493 15.5709 15.5493C15.2728 15.5493 14.9407 15.466 14.6682 15.2993C14.4467 15.1577 14.1912 15.1077 13.9187 15.1077C13.0756 15.1077 12.3688 15.7993 12.3432 16.6243C12.3432 17.5827 11.5597 18.3327 10.5803 18.3327H9.42211C8.43422 18.3327 7.65072 17.5827 7.65072 16.6243C7.63369 15.7993 6.92683 15.1077 6.08372 15.1077C5.80268 15.1077 5.54719 15.1577 5.33428 15.2993C5.06176 15.466 4.72111 15.5493 4.43155 15.5493C3.81838 15.5493 3.23075 15.216 2.91565 14.6827L2.32802 13.6827C2.01292 13.141 1.99589 12.491 2.31099 11.9743C2.44725 11.7243 2.70274 11.4743 2.9923 11.316C3.23075 11.1993 3.38405 11.0077 3.52882 10.7827C3.95464 10.066 3.69915 9.12435 2.97526 8.69935C2.13215 8.22435 1.85963 7.16602 2.34506 6.34102L2.91565 5.35768C3.4096 4.53268 4.46562 4.24102 5.31725 4.72435C6.05817 5.12435 7.02051 4.85768 7.45484 4.14935C7.5911 3.91602 7.66775 3.66602 7.65072 3.41602C7.63369 3.09102 7.72737 2.78268 7.88918 2.53268C8.20428 2.01602 8.77487 1.68268 9.39656 1.66602H10.5974C11.2276 1.66602 11.7982 2.01602 12.1133 2.53268C12.2666 2.78268 12.3688 3.09102 12.3432 3.41602C12.3262 3.66602 12.4028 3.91602 12.5391 4.14935C12.9734 4.85768 13.9358 5.12435 14.6852 4.72435C15.5283 4.24102 16.5928 4.53268 17.0783 5.35768L17.6489 6.34102C18.1428 7.16602 17.8703 8.22435 17.0187 8.69935C16.2948 9.12435 16.0393 10.066 16.4736 10.7827C16.6099 11.0077 16.7632 11.1993 17.0016 11.316ZM7.59108 10.0077C7.59108 11.3161 8.67265 12.3577 10.0097 12.3577C11.3468 12.3577 12.4028 11.3161 12.4028 10.0077C12.4028 8.6994 11.3468 7.6494 10.0097 7.6494C8.67265 7.6494 7.59108 8.6994 7.59108 10.0077Z" fill="#202320"/>
</svg>
