<svg width="20" height="20" viewBox="0 0 20 20" fill="none" xmlns="http://www.w3.org/2000/svg">
<path d="M11.4586 8.0861V6.4029C11.1281 6.4029 10.8541 6.13672 10.8541 5.81573V3.81154C10.8541 3.54458 10.6365 3.33398 10.3625 3.33398H4.82576C3.08494 3.33398 1.6665 4.71108 1.6665 6.4029V8.42979C1.6665 8.58715 1.73098 8.7359 1.84381 8.8455C1.95664 8.95432 2.10977 9.01695 2.27095 9.01695C2.88346 9.01695 3.3509 9.43971 3.3509 9.99556C3.3509 10.5757 2.8754 11.0376 2.27901 11.0446C1.94858 11.0446 1.6665 11.2717 1.6665 11.6005V13.6054C1.6665 15.2965 3.08494 16.6665 4.8177 16.6665H10.3625C10.6365 16.6665 10.8541 16.4544 10.8541 16.189V14.4972C10.8541 14.1691 11.1281 13.91 11.4586 13.91V12.392C11.1281 12.392 10.8541 12.125 10.8541 11.8048V8.67327C10.8541 8.35228 11.1281 8.0861 11.4586 8.0861Z" fill="#202320"/>
<path d="M16.6487 9.99634C16.6487 10.5757 17.1323 11.0376 17.7206 11.0454C18.051 11.0454 18.3331 11.2724 18.3331 11.5934V13.6054C18.3331 15.2973 16.9227 16.6673 15.1819 16.6673H12.5546C12.2886 16.6673 12.0629 16.4552 12.0629 16.189V14.4979C12.0629 14.1691 11.797 13.9108 11.4585 13.9108V12.3928C11.797 12.3928 12.0629 12.1258 12.0629 11.8056V8.67405C12.0629 8.35228 11.797 8.08688 11.4585 8.08688V6.4029C11.797 6.4029 12.0629 6.13672 12.0629 5.81573V3.81233C12.0629 3.54536 12.2886 3.33398 12.5546 3.33398H15.1819C16.9227 3.33398 18.3331 4.70403 18.3331 6.39507V8.36794C18.3331 8.52452 18.2686 8.67405 18.1558 8.78287C18.043 8.89247 17.8898 8.95511 17.7286 8.95511C17.1323 8.95511 16.6487 9.42562 16.6487 9.99634Z" fill="#202320"/>
</svg>
