<svg width="103" height="81" viewBox="0 0 103 81" fill="none" xmlns="http://www.w3.org/2000/svg">
<path opacity="0.2" d="M69.3869 43.1206C65.3854 41.3735 62.2642 38.7529 60.0233 35.2588C57.7824 31.7647 56.662 27.6353 56.662 22.8706C56.662 16.0412 58.8228 10.4824 63.1445 6.19412C67.4662 2.0647 72.9883 0 79.711 0C86.4336 0 92.0357 2.14411 96.5175 6.43234C100.839 10.7206 103 16.2 103 22.8706C103 26.0471 102.6 29.2235 101.8 32.4C100.999 35.5765 99.2385 40.3412 96.5175 46.6941L82.5921 81H58.8228L69.3869 43.1206ZM12.7249 43.1206C8.72338 41.3735 5.60217 38.7529 3.3613 35.2588C1.12043 31.7647 0 27.6353 0 22.8706C0 16.0412 2.16084 10.4824 6.48251 6.19412C10.8042 2.0647 16.3263 0 23.049 0C29.7716 0 35.3737 2.14411 39.8555 6.43234C44.1772 10.7206 46.338 16.2 46.338 22.8706C46.338 26.0471 45.9378 29.2235 45.1375 32.4C44.3372 35.5765 42.5765 40.3412 39.8555 46.6941L25.9301 81H2.16084L12.7249 43.1206Z" fill="#DC7702"/>
</svg>
