<svg width="103" height="81" viewBox="0 0 103 81" fill="none" xmlns="http://www.w3.org/2000/svg">
<path opacity="0.2" d="M33.6131 37.8794C37.6146 39.6265 40.7358 42.2471 42.9767 45.7412C45.2176 49.2353 46.338 53.3647 46.338 58.1294C46.338 64.9588 44.1772 70.5176 39.8555 74.8059C35.5338 78.9353 30.0117 81 23.289 81C16.5664 81 10.9643 78.8559 6.48252 74.5677C2.16084 70.2794 0 64.8 0 58.1294C0 54.9529 0.400155 51.7765 1.20047 48.6C2.00078 45.4235 3.76146 40.6588 6.48252 34.3059L20.4079 0H44.1772L33.6131 37.8794ZM90.2751 37.8794C94.2766 39.6265 97.3978 42.2471 99.6387 45.7412C101.88 49.2353 103 53.3647 103 58.1294C103 64.9588 100.839 70.5176 96.5175 74.8059C92.1958 78.9353 86.6737 81 79.951 81C73.2284 81 67.6263 78.8559 63.1445 74.5677C58.8228 70.2794 56.662 64.8 56.662 58.1294C56.662 54.9529 57.0622 51.7765 57.8625 48.6C58.6628 45.4235 60.4235 40.6588 63.1445 34.3059L77.0699 0H100.839L90.2751 37.8794Z" fill="#DC7702"/>
</svg>
