<svg width="30" height="30" viewBox="0 0 30 30" fill="none" xmlns="http://www.w3.org/2000/svg">
<path d="M14.1032 4.31663C14.47 3.57346 15.5297 3.57346 15.8966 4.31663L18.6299 9.85409C18.7755 10.1489 19.0567 10.3534 19.382 10.401L25.4961 11.2946C26.316 11.4145 26.6428 12.4223 26.0492 13.0005L21.6267 17.308C21.3908 17.5377 21.2831 17.8689 21.3388 18.1934L22.3823 24.2776C22.5224 25.0946 21.6649 25.7176 20.9312 25.3317L15.4653 22.4573C15.1739 22.304 14.8258 22.304 14.5344 22.4573L9.06851 25.3317C8.33488 25.7176 7.47733 25.0946 7.61745 24.2776L8.66096 18.1934C8.71662 17.8689 8.60896 17.5377 8.37309 17.308L3.95056 13.0005C3.35696 12.4223 3.68375 11.4145 4.50366 11.2946L10.6177 10.401C10.9431 10.3534 11.2243 10.1489 11.3698 9.85409L14.1032 4.31663Z" fill="#FFC200"/>
</svg>
