<svg width="30" height="30" viewBox="0 0 30 30" fill="none" xmlns="http://www.w3.org/2000/svg">
<rect opacity="0.2" width="30" height="30" rx="12" fill="#75B248"/>
<path d="M20.25 9H9.75C8.92157 9 8.25 9.67157 8.25 10.5V21C8.25 21.8284 8.92157 22.5 9.75 22.5H20.25C21.0784 22.5 21.75 21.8284 21.75 21V10.5C21.75 9.67157 21.0784 9 20.25 9Z" stroke="#75B248" stroke-width="2" stroke-linecap="round" stroke-linejoin="round"/>
<path d="M20.25 13.5H9.75C8.92157 13.5 8.25 14.1716 8.25 15V21C8.25 21.8284 8.92157 22.5 9.75 22.5H20.25C21.0784 22.5 21.75 21.8284 21.75 21V15C21.75 14.1716 21.0784 13.5 20.25 13.5Z" fill="#75B248"/>
<path d="M18 7.5V10.5" stroke="#75B248" stroke-width="2" stroke-linecap="round" stroke-linejoin="round"/>
<path d="M12 7.5V10.5" stroke="#75B248" stroke-width="2" stroke-linecap="round" stroke-linejoin="round"/>
<path d="M8.25 13.5H21.75" stroke="#75B248" stroke-width="2" stroke-linecap="round" stroke-linejoin="round"/>
</svg>
