<svg width="18" height="18" viewBox="0 0 18 18" fill="none" xmlns="http://www.w3.org/2000/svg">
<path d="M13.392 2.25C15.105 2.25 16.4993 3.63151 16.4993 5.32886L16.5 7.33684C16.5 7.48398 16.4408 7.62667 16.3358 7.73071C16.23 7.83549 16.0875 7.8942 15.9375 7.8942C15.3217 7.8942 14.8207 8.39062 14.8207 9.00074C14.8207 9.61087 15.3217 10.1073 15.9375 10.1073C16.248 10.1073 16.5 10.357 16.5 10.6646V12.6719C16.5 14.3692 15.1065 15.75 13.3935 15.75H4.60725C2.89425 15.75 1.5 14.3692 1.5 12.6719V10.6646C1.5 10.357 1.752 10.1073 2.0625 10.1073C2.679 10.1073 3.18 9.61087 3.18 9.00074C3.18 8.40623 2.69925 7.95885 2.0625 7.95885C1.91325 7.95885 1.77075 7.90014 1.665 7.79536C1.55925 7.69058 1.5 7.54864 1.5 7.40149L1.5015 5.32886C1.5015 3.63151 2.895 2.25 4.608 2.25H13.392ZM9.0015 6.11511C8.7885 6.11511 8.598 6.23252 8.50275 6.42128L7.956 7.51891L6.7365 7.69503C6.52575 7.72476 6.35325 7.86744 6.2865 8.06809C6.2205 8.26874 6.27375 8.48574 6.42675 8.63289L7.311 9.48602L7.1025 10.6921C7.0665 10.9002 7.15125 11.1068 7.32375 11.2309C7.42125 11.3 7.5345 11.3357 7.64925 11.3357C7.737 11.3357 7.8255 11.3142 7.9065 11.2718L9 10.7025L10.0912 11.2703C10.2802 11.3706 10.5045 11.355 10.6762 11.2302C10.8495 11.1068 10.9342 10.9002 10.8983 10.6921L10.689 9.48602L11.5732 8.63289C11.727 8.48574 11.7802 8.26874 11.7135 8.06809C11.6475 7.86744 11.475 7.72476 11.2665 7.69578L10.0448 7.51891L9.498 6.42202C9.40425 6.23327 9.21375 6.11585 9.0015 6.11511Z" fill="#75B248"/>
</svg>
