<svg width="30" height="30" viewBox="0 0 30 30" fill="none" xmlns="http://www.w3.org/2000/svg">
<path opacity="0.2" d="M0 12C0 5.37258 5.37258 0 12 0H18C24.6274 0 30 5.37258 30 12V18C30 24.6274 24.6274 30 18 30H12C5.37258 30 0 24.6274 0 18V12Z" fill="#75B248"/>
<path d="M21.75 13.5C21.75 18.75 15 23.25 15 23.25C15 23.25 8.25 18.75 8.25 13.5C8.25 11.7098 8.96116 9.9929 10.227 8.72703C11.4929 7.46116 13.2098 6.75 15 6.75C16.7902 6.75 18.5071 7.46116 19.773 8.72703C21.0388 9.9929 21.75 11.7098 21.75 13.5Z" fill="#75B248"/>
<path d="M15 15.75C16.2426 15.75 17.25 14.7426 17.25 13.5C17.25 12.2574 16.2426 11.25 15 11.25C13.7574 11.25 12.75 12.2574 12.75 13.5C12.75 14.7426 13.7574 15.75 15 15.75Z" fill="#E0E2E4"/>
</svg>
