<svg width="84" height="136" viewBox="0 0 84 136" fill="none" xmlns="http://www.w3.org/2000/svg">
<circle cx="3" cy="3" r="3" fill="#DC7702"/>
<circle cx="3" cy="29" r="3" fill="#DC7702"/>
<circle cx="3" cy="55" r="3" fill="#DC7702"/>
<circle cx="3" cy="81" r="3" fill="#DC7702"/>
<circle cx="3" cy="107" r="3" fill="#DC7702"/>
<circle cx="3" cy="133" r="3" fill="#DC7702"/>
<circle cx="29" cy="3" r="3" fill="#DC7702"/>
<circle cx="29" cy="29" r="3" fill="#DC7702"/>
<circle cx="29" cy="55" r="3" fill="#DC7702"/>
<circle cx="29" cy="81" r="3" fill="#DC7702"/>
<circle cx="29" cy="107" r="3" fill="#DC7702"/>
<circle cx="29" cy="133" r="3" fill="#DC7702"/>
<circle cx="55" cy="3" r="3" fill="#DC7702"/>
<circle cx="55" cy="29" r="3" fill="#DC7702"/>
<circle cx="55" cy="55" r="3" fill="#DC7702"/>
<circle cx="55" cy="81" r="3" fill="#DC7702"/>
<circle cx="55" cy="107" r="3" fill="#DC7702"/>
<circle cx="55" cy="133" r="3" fill="#DC7702"/>
<circle cx="81" cy="3" r="3" fill="#DC7702"/>
<circle cx="81" cy="29" r="3" fill="#DC7702"/>
<circle cx="81" cy="55" r="3" fill="#DC7702"/>
<circle cx="81" cy="81" r="3" fill="#DC7702"/>
<circle cx="81" cy="107" r="3" fill="#DC7702"/>
<circle cx="81" cy="133" r="3" fill="#DC7702"/>
</svg>
