<svg width="124" height="146" viewBox="0 0 124 146" fill="none" xmlns="http://www.w3.org/2000/svg">
<path fill-rule="evenodd" clip-rule="evenodd" d="M90.2704 0H70C69.4471 0 68.8957 0.00641014 68.3459 0.0191602L0.0191601 68.3459C0.00641013 68.8957 0 69.4471 0 70V90.2704L90.2704 0ZM0 102.998V128.637L124 4.63661V0H102.998L0 102.998ZM0 146V141.365L124 17.3645V39.2704L17.2704 146H0ZM29.9983 146L124 51.9983V76C124 76.2135 123.999 76.4269 123.997 76.64L54.64 145.997C54.4269 145.999 54.2135 146 54 146H29.9983ZM68.9692 144.396C95.6136 138.591 116.591 117.614 122.396 90.9692L68.9692 144.396ZM1.89864 53.7385C7.98872 28.139 28.139 7.98872 53.7385 1.89864L1.89864 53.7385Z" fill="#E4FED1"/>
</svg>
