<svg width="112" height="16" viewBox="0 0 112 16" fill="none" xmlns="http://www.w3.org/2000/svg">
<path d="M8 0L10.2101 4.9581L15.6085 5.52786L11.576 9.1619L12.7023 14.4721L8 11.76L3.29772 14.4721L4.42403 9.1619L0.391548 5.52786L5.78993 4.9581L8 0Z" fill="#FFC200"/>
<path d="M32 0L34.2101 4.9581L39.6085 5.52786L35.576 9.1619L36.7023 14.4721L32 11.76L27.2977 14.4721L28.424 9.1619L24.3915 5.52786L29.7899 4.9581L32 0Z" fill="#FFC200"/>
<path d="M56 0L58.2101 4.9581L63.6085 5.52786L59.576 9.1619L60.7023 14.4721L56 11.76L51.2977 14.4721L52.424 9.1619L48.3915 5.52786L53.7899 4.9581L56 0Z" fill="#FFC200"/>
<path d="M80 0L82.2101 4.9581L87.6085 5.52786L83.576 9.1619L84.7023 14.4721L80 11.76L75.2977 14.4721L76.424 9.1619L72.3915 5.52786L77.7899 4.9581L80 0Z" fill="#FFC200"/>
<path d="M104 0L106.21 4.9581L111.608 5.52786L107.576 9.1619L108.702 14.4721L104 11.76L99.2977 14.4721L100.424 9.1619L96.3915 5.52786L101.79 4.9581L104 0Z" fill="#E1E1E1"/>
</svg>
