<svg width="174" height="115" viewBox="0 0 174 115" fill="none" xmlns="http://www.w3.org/2000/svg">
<path d="M65.3064 33.2588C35.8064 20.2588 25.3331 35.5017 23.5 39.259C13.5 59.7593 -9.19357 71.7586 5.80643 76.2586C20.8064 80.7586 24.8064 90.2586 34.8064 106.259C44.8064 122.259 100.306 110.259 114.806 100.759C129.306 91.2586 130.306 102.759 149.806 103.759C169.306 104.759 180.306 83.7586 168.806 80.2586C157.306 76.7586 156.306 69.2586 147.306 51.7588C138.306 34.259 120.306 37.7586 109.806 39.2586C99.3064 40.7586 94.8064 46.2588 65.3064 33.2588Z" fill="url(#paint0_linear)"/>
<path d="M120 54.1347C120 63.4347 111.936 70.968 101.892 71.0014H101.856H66.18C56.172 71.0014 48 63.5013 48 54.2013V54.168C48 54.168 48.0216 39.4146 48.0504 31.9946C48.054 30.6013 49.782 29.8213 50.9592 30.688C59.5128 36.9713 74.8092 48.428 75 48.578C77.556 50.4747 80.796 51.5447 84.108 51.5447C87.42 51.5447 90.66 50.4747 93.216 48.5413C93.4068 48.4247 108.361 37.3113 117.044 30.9246C118.225 30.0546 119.96 30.8346 119.964 32.2246C120 39.588 120 54.1347 120 54.1347Z" fill="#C8E0B6"/>
<path d="M118.115 19.9133C114.998 14.4733 108.863 11 102.11 11H66.1815C59.4279 11 53.2935 14.4733 50.1759 19.9133C49.4775 21.13 49.8087 22.6467 50.9715 23.5067L77.7015 43.3034C79.5735 44.7034 81.8415 45.4 84.1095 45.4C84.1239 45.4 84.1347 45.4 84.1455 45.4C84.1563 45.4 84.1707 45.4 84.1815 45.4C86.4495 45.4 88.7175 44.7034 90.5895 43.3034L117.32 23.5067C118.482 22.6467 118.814 21.13 118.115 19.9133Z" fill="#75B248"/>
<g filter="url(#filter0_d)">
<circle cx="123" cy="20" r="15" fill="white"/>
</g>
<path d="M114.428 15.5898H122.827C124.522 15.5898 125.896 16.9638 125.896 18.6588V24.4735H117.497C115.802 24.4735 114.428 23.0995 114.428 21.4046V15.5898Z" fill="#4587F7"/>
<path d="M130.499 15.3477L126.461 18.1743V21.7278L130.499 24.6352V15.3477Z" fill="#4587F7"/>
<g filter="url(#filter1_d)">
<circle cx="45.5" cy="64.5" r="19.5" fill="white"/>
</g>
<path fill-rule="evenodd" clip-rule="evenodd" d="M42.4257 69.39H47.8119C48.2178 69.39 48.5545 69.05 48.5545 68.64C48.5545 68.23 48.2178 67.9 47.8119 67.9H42.4257C42.0198 67.9 41.6832 68.23 41.6832 68.64C41.6832 69.05 42.0198 69.39 42.4257 69.39ZM45.7723 62.9H42.4257C42.0198 62.9 41.6832 63.24 41.6832 63.65C41.6832 64.06 42.0198 64.39 42.4257 64.39H45.7723C46.1782 64.39 46.5149 64.06 46.5149 63.65C46.5149 63.24 46.1782 62.9 45.7723 62.9ZM52.8381 62.0256C53.0708 62.0229 53.3242 62.02 53.5545 62.02C53.802 62.02 54 62.22 54 62.47V70.51C54 72.99 52.0099 75 49.5545 75H41.6733C39.099 75 37 72.89 37 70.29V59.51C37 57.03 39 55 41.4653 55H46.7525C47.0099 55 47.2079 55.21 47.2079 55.46V58.68C47.2079 60.51 48.703 62.01 50.5149 62.02C50.9381 62.02 51.3112 62.0232 51.6377 62.0259C51.8917 62.0281 52.1175 62.03 52.3168 62.03C52.4578 62.03 52.6405 62.0279 52.8381 62.0256ZM53.1111 60.566C52.2972 60.569 51.3378 60.566 50.6477 60.559C49.5527 60.559 48.6507 59.648 48.6507 58.542V55.906C48.6507 55.475 49.1685 55.261 49.4646 55.572C50.0004 56.1348 50.7368 56.9083 51.4699 57.6784C52.2009 58.4463 52.9286 59.2107 53.4507 59.759C53.7398 60.062 53.5279 60.565 53.1111 60.566Z" fill="#DC7702"/>
<defs>
<filter id="filter0_d" x="96.75" y="0.750002" width="52.5" height="52.5" filterUnits="userSpaceOnUse" color-interpolation-filters="sRGB">
<feFlood flood-opacity="0" result="BackgroundImageFix"/>
<feColorMatrix in="SourceAlpha" type="matrix" values="0 0 0 0 0 0 0 0 0 0 0 0 0 0 0 0 0 0 127 0" result="hardAlpha"/>
<feOffset dy="7"/>
<feGaussianBlur stdDeviation="5.625"/>
<feColorMatrix type="matrix" values="0 0 0 0 0.185035 0 0 0 0 0.341988 0 0 0 0 0.608333 0 0 0 0.14 0"/>
<feBlend mode="normal" in2="BackgroundImageFix" result="effect1_dropShadow"/>
<feBlend mode="normal" in="SourceGraphic" in2="effect1_dropShadow" result="shape"/>
</filter>
<filter id="filter1_d" x="11.375" y="39.035" width="68.25" height="68.25" filterUnits="userSpaceOnUse" color-interpolation-filters="sRGB">
<feFlood flood-opacity="0" result="BackgroundImageFix"/>
<feColorMatrix in="SourceAlpha" type="matrix" values="0 0 0 0 0 0 0 0 0 0 0 0 0 0 0 0 0 0 127 0" result="hardAlpha"/>
<feOffset dy="8.66"/>
<feGaussianBlur stdDeviation="7.3125"/>
<feColorMatrix type="matrix" values="0 0 0 0 0.185035 0 0 0 0 0.341988 0 0 0 0 0.608333 0 0 0 0.14 0"/>
<feBlend mode="normal" in2="BackgroundImageFix" result="effect1_dropShadow"/>
<feBlend mode="normal" in="SourceGraphic" in2="effect1_dropShadow" result="shape"/>
</filter>
<linearGradient id="paint0_linear" x1="87.2407" y1="30" x2="87.2407" y2="114.076" gradientUnits="userSpaceOnUse">
<stop stop-color="#A6DB7F" stop-opacity="0.22"/>
<stop offset="1" stop-color="white" stop-opacity="0"/>
</linearGradient>
</defs>
</svg>
