<svg width="20" height="20" viewBox="0 0 20 20" fill="none" xmlns="http://www.w3.org/2000/svg">
<path fill-rule="evenodd" clip-rule="evenodd" d="M9.5765 1.6983C9.9215 1.6983 10.2015 1.9783 10.2015 2.3233C10.2015 2.6683 9.9215 2.9483 9.5765 2.9483H6.46067C4.30734 2.9483 2.9165 4.4233 2.9165 6.7058V13.6341C2.9165 15.9166 4.30734 17.3916 6.46067 17.3916H13.814C15.9673 17.3916 17.359 15.9166 17.359 13.6341V10.2775C17.359 9.93247 17.639 9.65247 17.984 9.65247C18.329 9.65247 18.609 9.93247 18.609 10.2775V13.6341C18.609 16.6291 16.6815 18.6416 13.814 18.6416H6.46067C3.59317 18.6416 1.6665 16.6291 1.6665 13.6341V6.7058C1.6665 3.7108 3.59317 1.6983 6.46067 1.6983H9.5765ZM16.8345 2.43047L17.8487 3.44464C18.3428 3.93797 18.6145 4.5938 18.6137 5.29214C18.6137 5.99047 18.342 6.64547 17.8487 7.13797L11.5912 13.3955C11.132 13.8546 10.5203 14.108 9.87034 14.108H6.74867C6.58034 14.108 6.41867 14.0396 6.30117 13.9188C6.18367 13.7988 6.1195 13.6363 6.12367 13.4671L6.202 10.318C6.21784 9.6913 6.47034 9.10214 6.91367 8.65797H6.9145L13.142 2.43047C14.1603 1.4138 15.8162 1.4138 16.8345 2.43047ZM12.629 4.71047L7.79784 9.54214C7.582 9.75797 7.4595 10.0446 7.452 10.3488L7.3895 12.858H9.87034C10.187 12.858 10.4837 12.7355 10.7078 12.5113L15.5682 7.64964L12.629 4.71047ZM14.0253 3.31464L13.5123 3.8263L16.4515 6.7663L16.9653 6.2538C17.222 5.99714 17.3637 5.65547 17.3637 5.29214C17.3637 4.92797 17.222 4.58547 16.9653 4.3288L15.9512 3.31464C15.4203 2.78547 14.557 2.78547 14.0253 3.31464Z" fill="#202320"/>
</svg>
