<svg width="20" height="20" viewBox="0 0 20 20" fill="none" xmlns="http://www.w3.org/2000/svg">
<path fill-rule="evenodd" clip-rule="evenodd" d="M16.1538 7.26772C16.498 7.29605 16.7547 7.59689 16.7272 7.94105C16.7222 7.99772 16.2705 13.5902 16.0105 15.9361C15.8488 17.3919 14.8872 18.2777 13.4355 18.3044C12.3247 18.3236 11.253 18.3344 10.2055 18.3344C9.07633 18.3344 7.9755 18.3219 6.88633 18.2994C5.493 18.2719 4.52883 17.3686 4.37133 15.9419C4.10883 13.5752 3.65967 7.99689 3.6555 7.94105C3.62717 7.59689 3.88383 7.29522 4.228 7.26772C4.56717 7.25855 4.87383 7.49689 4.90133 7.84022C4.90399 7.87639 5.08762 10.1544 5.28772 12.4083L5.32791 12.8581C5.42869 13.9784 5.53085 15.0549 5.61383 15.8044C5.703 16.6152 6.1405 17.0336 6.91217 17.0494C8.9955 17.0936 11.1213 17.0961 13.413 17.0544C14.233 17.0386 14.6763 16.6286 14.768 15.7986C15.0263 13.4702 15.4763 7.89689 15.4813 7.84022C15.5088 7.49689 15.813 7.25689 16.1538 7.26772ZM11.9545 1.66797C12.7195 1.66797 13.392 2.1838 13.5895 2.92297L13.8012 3.9738C13.8696 4.31828 14.1719 4.56985 14.5219 4.57538L17.2567 4.57547C17.6017 4.57547 17.8817 4.85547 17.8817 5.20047C17.8817 5.54547 17.6017 5.82547 17.2567 5.82547L14.5463 5.82534C14.5421 5.82543 14.5379 5.82547 14.5337 5.82547L14.5133 5.82464L5.86802 5.82537C5.86129 5.82544 5.85457 5.82547 5.84783 5.82547L5.835 5.82464L3.125 5.82547C2.78 5.82547 2.5 5.54547 2.5 5.20047C2.5 4.85547 2.78 4.57547 3.125 4.57547L5.85917 4.57464L5.94335 4.56931C6.25692 4.52862 6.51753 4.29047 6.58117 3.9738L6.78367 2.96047C6.9895 2.1838 7.662 1.66797 8.427 1.66797H11.9545ZM11.9545 2.91797H8.427C8.227 2.91797 8.05117 3.05214 8.00033 3.24464L7.80617 4.21964C7.78149 4.34313 7.74556 4.46215 7.69957 4.57569H12.6822C12.6361 4.46215 12.6001 4.34313 12.5753 4.21964L12.3728 3.2063C12.3303 3.05214 12.1545 2.91797 11.9545 2.91797Z" fill="#EB5757"/>
</svg>
