<svg width="20" height="20" viewBox="0 0 20 20" fill="none" xmlns="http://www.w3.org/2000/svg">
<path d="M8.43077 14.9863H2.40234" stroke="#BDBFBD" stroke-width="1.5" stroke-linecap="round" stroke-linejoin="round"/>
<path fill-rule="evenodd" clip-rule="evenodd" d="M17.5988 14.9859C17.5988 16.3114 16.5243 17.3859 15.1988 17.3859C13.8733 17.3859 12.7988 16.3114 12.7988 14.9859C12.7988 13.6595 13.8733 12.5859 15.1988 12.5859C16.5243 12.5859 17.5988 13.6595 17.5988 14.9859Z" stroke="#BDBFBD" stroke-width="1.5" stroke-linecap="round" stroke-linejoin="round"/>
<path d="M11.5684 5.21676H17.5978" stroke="#BDBFBD" stroke-width="1.5" stroke-linecap="round" stroke-linejoin="round"/>
<path fill-rule="evenodd" clip-rule="evenodd" d="M2.40234 5.21641C2.40234 6.54288 3.47685 7.61641 4.80234 7.61641C6.12783 7.61641 7.20234 6.54288 7.20234 5.21641C7.20234 3.89092 6.12783 2.81641 4.80234 2.81641C3.47685 2.81641 2.40234 3.89092 2.40234 5.21641Z" stroke="#BDBFBD" stroke-width="1.5" stroke-linecap="round" stroke-linejoin="round"/>
</svg>
