<svg width="24" height="24" viewBox="0 0 24 24" fill="none" xmlns="http://www.w3.org/2000/svg">
<path d="M17 9C17 12.87 13.64 16 9.5 16L8.57001 17.12L8.02 17.78C7.55 18.34 6.65 18.22 6.34 17.55L5 14.6C3.18 13.32 2 11.29 2 9C2 5.13 5.36 2 9.5 2C12.52 2 15.13 3.67001 16.3 6.07001C16.75 6.96001 17 7.95 17 9Z" stroke="#838683" stroke-width="1.5" stroke-linecap="round" stroke-linejoin="round"/>
<path d="M21.9998 12.8603C21.9998 15.1503 20.8198 17.1803 18.9998 18.4603L17.6598 21.4103C17.3498 22.0803 16.4498 22.2103 15.9798 21.6403L14.4998 19.8603C12.0798 19.8603 9.91982 18.7903 8.56982 17.1203L9.49982 16.0003C13.6398 16.0003 16.9998 12.8703 16.9998 9.00031C16.9998 7.95031 16.7498 6.96031 16.2998 6.07031C19.5698 6.82031 21.9998 9.58029 21.9998 12.8603Z" stroke="#838683" stroke-width="1.5" stroke-linecap="round" stroke-linejoin="round"/>
<path d="M7 9H12" stroke="#838683" stroke-width="1.5" stroke-linecap="round" stroke-linejoin="round"/>
</svg>
