<svg width="18" height="18" viewBox="0 0 18 18" fill="none" xmlns="http://www.w3.org/2000/svg">
<path fill-rule="evenodd" clip-rule="evenodd" d="M5.4975 1.5H12.495C15.045 1.5 16.5 2.94 16.5 5.4975V12.5025C16.5 15.045 15.0525 16.5 12.5025 16.5H5.4975C2.94 16.5 1.5 15.045 1.5 12.5025V5.4975C1.5 2.94 2.94 1.5 5.4975 1.5ZM9.615 9.62257H11.745C12.09 9.61508 12.3675 9.33757 12.3675 8.99258C12.3675 8.64757 12.09 8.37008 11.745 8.37008H9.615V6.25507C9.615 5.91008 9.3375 5.63258 8.9925 5.63258C8.6475 5.63258 8.37 5.91008 8.37 6.25507V8.37008H6.2475C6.0825 8.37008 5.925 8.43758 5.805 8.55008C5.6925 8.67007 5.625 8.82683 5.625 8.99258C5.625 9.33757 5.9025 9.61508 6.2475 9.62257H8.37V11.7451C8.37 12.0901 8.6475 12.3676 8.9925 12.3676C9.3375 12.3676 9.615 12.0901 9.615 11.7451V9.62257Z" fill="#DC7702"/>
</svg>
