<svg width="42" height="42" viewBox="0 0 42 42" fill="none" xmlns="http://www.w3.org/2000/svg">
<circle opacity="0.1" cx="21" cy="21" r="21" fill="#75B248"/>
<path fill-rule="evenodd" clip-rule="evenodd" d="M14.0386 29.0014C11.2148 28.9757 8.93359 26.668 8.93359 23.825C8.93359 21.946 9.93008 20.3009 11.4211 19.3938C11.2933 19.0333 11.2236 18.6446 11.2236 18.2394C11.2236 16.3554 12.7296 14.8281 14.5872 14.8281C14.9944 14.8281 15.3847 14.9015 15.7459 15.0359C16.8696 12.7377 19.2188 11.1562 21.9348 11.1562C25.476 11.1562 28.3936 13.8446 28.7844 17.305C31.4294 17.8872 33.4091 20.2534 33.4091 23.0839C33.4091 26.3433 30.7839 28.9871 27.5407 29V29.0018H22.8171V23.6562H19.5728V29.0018H14.0386V29.0014ZM20.4673 18.624C20.8297 18.1357 21.5606 18.1357 21.923 18.624L24.5836 22.2082C25.0276 22.8063 24.6006 23.655 23.8557 23.655H18.5346C17.7897 23.655 17.3627 22.8063 17.8067 22.2082L20.4673 18.624Z" fill="#75B248"/>
</svg>
