<svg width="20" height="20" viewBox="0 0 20 20" fill="none" xmlns="http://www.w3.org/2000/svg">
<path fill-rule="evenodd" clip-rule="evenodd" d="M9.47803 2.82812V11.3483L8.11591 9.98157L8.04593 9.92091C7.80163 9.73887 7.45437 9.75833 7.23203 9.97976C6.98745 10.2233 6.98664 10.6191 7.23021 10.8636L9.66021 13.3036L9.66238 13.3055C9.68272 13.3257 9.70445 13.3446 9.7274 13.3619L9.73039 13.3645C9.97544 13.5469 10.3238 13.5266 10.5459 13.3036L12.9759 10.8636L13.0363 10.7934C13.2173 10.5484 13.1964 10.2012 12.9741 9.97976L12.9039 9.91939C12.6588 9.73834 12.3116 9.75923 12.0902 9.98157L10.728 11.3488V2.82812L10.7223 2.74332C10.6809 2.43825 10.4194 2.20312 10.103 2.20312C9.75785 2.20312 9.47803 2.48295 9.47803 2.82812ZM14.9223 17.5962C16.8786 17.5056 18.4362 15.8913 18.4362 13.9127V9.84269L18.4322 9.66867C18.3414 7.70783 16.7241 6.14686 14.7412 6.14686H13.9637L13.8789 6.15257C13.5739 6.19395 13.3387 6.45545 13.3387 6.77186C13.3387 7.11704 13.6186 7.39686 13.9637 7.39686H14.7412L14.8849 7.40101C16.1688 7.47536 17.1862 8.53957 17.1862 9.84269V13.9127L17.1821 14.0559C17.108 15.3357 16.0471 16.3502 14.7487 16.3502L5.4654 16.3502L5.3217 16.346C4.03791 16.2716 3.01957 15.2068 3.01957 13.9044V9.83353L3.0237 9.69038C3.09786 8.41153 4.15927 7.39686 5.45707 7.39686H6.24206L6.32687 7.39115C6.63194 7.34977 6.86706 7.08827 6.86706 6.77186C6.86706 6.42668 6.58724 6.14686 6.24206 6.14686H5.45707L5.27844 6.15111C3.32524 6.2443 1.76957 7.8575 1.76957 9.83353V13.9044L1.77359 14.0783C1.86444 16.0386 3.4827 17.6002 5.4654 17.6002L14.7487 17.6002L14.9223 17.5962Z" fill="#DC7702"/>
</svg>
