<svg width="60" height="60" viewBox="0 0 60 60" fill="none" xmlns="http://www.w3.org/2000/svg">
<rect width="60" height="60" rx="20" fill="#DB3838" fill-opacity="0.1"/>
<path d="M45 20C39.45 20 33.8667 20 28.3 20C25 20 21.7 20 18.4 20H15" stroke="#DB3838" stroke-width="2" stroke-linecap="round" stroke-linejoin="round"/>
<path d="M24.166 19.95L24.5327 17.7667C24.7993 16.1833 24.9993 15 27.816 15H32.1827C34.9993 15 35.216 16.25 35.466 17.7833L35.8327 19.95" stroke="#DB3838" stroke-width="2" stroke-linecap="round" stroke-linejoin="round"/>
<path d="M41.4173 23.5664L40.334 40.3497C40.1507 42.9664 40.0006 44.9997 35.3506 44.9997H24.6507C20.0007 44.9997 19.8507 42.9664 19.6673 40.3497L18.584 23.5664" stroke="#DB3838" stroke-width="2" stroke-linecap="round" stroke-linejoin="round"/>
<path d="M25.834 35H34.1673" stroke="#DB3838" stroke-width="2" stroke-linecap="round" stroke-linejoin="round"/>
</svg>
